<svg xmlns="http://www.w3.org/2000/svg" x="0px" y="0px" viewBox="0 0 864 864" enable-background="new 0 0 864 864"><style>.ls0{fill:#f5ff62}.fs0{fill:#000}</style><g class="fs0"><path d="M647.6,647.6C590,705.1,513.4,736.8,432,736.8s-158-31.7-215.6-89.3C158.9,590,127.2,513.4,127.2,432s31.7-158,89.3-215.6	s134.1-89.3,215.6-89.3s158,31.7,215.6,89.3C705.3,274,737,350.5,737,432S705.1,590,647.6,647.6z"/></g><g transform="translate(5.3824120603 5.2324120603) scale(.98777)"><g><path class="ls0" d="M420.5,134.8V254h-54v-56.5c-39.9,11.1-76.5,32.3-106.6,62.4c-39.5,39.5-63.8,90.3-69.8,145.1h117.5v54H190.1 c5.2,47.6,24.2,92.1,55,128.9c4.7,5.6,9.6,11,14.8,16.2c30.1,30.1,66.7,51.3,106.6,62.4V610h54v119.2c-18.5-0.7-36.5-3.1-54-7 c-64.9-14.6-121.7-50.3-162.9-99.7c-37.7-45.1-62.2-101.6-67.8-163.5c-0.8-8.9-1.2-17.9-1.2-27c0-9.1,0.4-18.1,1.2-27 c11.7-129.6,106.5-235.2,230.7-263.1C384,137.9,402,135.5,420.5,134.8z"/></g><path class="ls0" d="M647.1,546.1l47.8,25.1c-5.9,11.2-12.5,21.9-19.8,32.2c-22.6,32-51.3,59.3-84.4,80.2	c-16.9,10.7-35,19.7-54,26.9c-12.7,4.8-25.7,8.7-39.1,11.7c-17.5,3.9-35.5,6.3-54,7v-54c18.5-0.9,36.5-3.8,54-8.6	c13.5-3.7,26.5-8.6,39.1-14.6V212.1c-12.6-6-25.7-10.9-39.1-14.6c-17.5-4.8-35.5-7.8-54-8.6v-54.1c18.5,0.7,36.5,3.1,54,7	c13.4,3,26.5,6.9,39.1,11.7c19,7.1,37.1,16.2,54,26.9c44.5,28.1,81,67.7,105.4,114.5l-47.8,25c-11.4-21.9-26.2-42.2-44.1-60.1	c-4.4-4.4-8.9-8.5-13.5-12.5v369.2c4.6-4,9.1-8.2,13.5-12.5c9.9-9.9,18.9-20.6,26.9-31.8C636.9,563.9,642.3,555.2,647.1,546.1z"/></g></svg>